<svg width="100" height="100" viewBox="0 0 100 100" fill="none" xmlns="http://www.w3.org/2000/svg">
<g clip-path="url(#clip0_633_5)">
<rect x="1.5" y="1.5" width="97" height="97" rx="48.5" fill="#6366F1" stroke="#6366F1" stroke-width="3"/>
<g clip-path="url(#clip1_633_5)">
<path d="M22.0231 65.9199C17.1981 57.5628 14.7856 53.3843 16.5635 48.8963C18.3413 44.4082 23.6151 41.3634 34.1628 35.2737L45.3503 28.8146C55.898 22.7249 61.1719 19.68 65.9475 20.3844C70.7232 21.0887 73.1357 25.2673 77.9606 33.6243C82.7855 41.9814 85.198 46.1599 83.4202 50.6479C81.6424 55.1359 76.3685 58.1808 65.8208 64.2705L54.6333 70.7296C44.0856 76.8193 38.8118 79.8642 34.0361 79.1598C29.2605 78.4554 26.848 74.2769 22.0231 65.9199Z" fill="white"/>
<path d="M12.0262 49.0222L35.5509 52.5207C38.3511 52.6724 41.1499 53.0043 43.0298 52.987M70.0042 14.1329L60.7845 38.3835C59.8159 40.9036 58.6503 43.4405 57.8082 44.9314M32.0363 82.3724L43.0298 52.987M43.0298 52.987C47.4287 52.987 49.6986 51.6208 51.5333 50.5616C53.5325 49.4073 56.151 47.8651 57.8082 44.9314M86.9359 52.1009L57.8082 44.9314" stroke="#6366F1" stroke-width="3" stroke-linecap="round"/>
</g>
</g>
<defs>
<clipPath id="clip0_633_5">
<rect width="100" height="100" fill="white"/>
</clipPath>
<clipPath id="clip1_633_5">
<rect width="65.6819" height="42.4513" fill="white" transform="translate(11 48) rotate(-30)"/>
</clipPath>
</defs>
</svg>
